<svg width="374" height="56" viewBox="0 0 374 56" fill="none" xmlns="http://www.w3.org/2000/svg">
<path d="M0 0H375V56H0V0Z" fill="white" fill-opacity="0.98"/>
<path d="M205.666 26.0406L206.718 25.0281C207.415 24.3375 208.245 23.5029 209.196 22.5243C210.148 21.5456 210.865 20.7703 211.362 20.1815C211.938 19.5248 212.226 19.0037 212.226 18.6097C212.226 18.0971 211.859 17.5082 211.124 16.8515C210.459 16.2867 209.903 16.0042 209.455 16.0042C209.007 16.0042 208.473 16.3686 207.853 17.0973C206.384 18.8371 204.46 21.0655 202.082 23.7825V17.9403C202.064 17.7309 202.02 17.5246 201.952 17.326C201.889 17.114 201.765 16.9255 201.598 16.7838C201.391 16.6345 201.159 16.5254 200.913 16.4618C200.546 16.3647 200.166 16.3205 199.787 16.3305C199.335 16.3162 198.884 16.369 198.447 16.4872C198.147 16.5711 197.892 16.7721 197.738 17.0464C197.616 17.2659 197.532 17.5053 197.492 17.7539C197.458 18.0591 197.444 18.3662 197.45 18.6733V34.2637C197.469 34.4719 197.514 34.6768 197.583 34.8738C197.644 35.0883 197.768 35.279 197.938 35.4203C198.144 35.5685 198.374 35.6776 198.618 35.7423C198.987 35.8396 199.368 35.8839 199.749 35.8736C200.2 35.8868 200.649 35.8326 201.084 35.7126C201.233 35.6724 201.373 35.6022 201.495 35.5061C201.617 35.41 201.718 35.2901 201.794 35.1534C201.913 34.9384 201.998 34.7052 202.044 34.4628C202.074 34.1532 202.087 33.842 202.082 33.5308V28.3071C202.082 28.3071 204.706 31.5778 207.01 34.0604C208.11 35.2491 209.33 36.3183 210.648 37.2505C213.341 39.0135 216.47 39.9667 219.674 40C220.898 40.0042 222.118 39.862 223.309 39.5763C229.985 37.9665 233.244 32.4463 234.087 30.794C234.226 30.5228 234.31 30.2265 234.336 29.9222C234.361 29.6179 234.327 29.3114 234.236 29.0203C234.145 28.7292 233.999 28.4591 233.805 28.2255C233.611 27.992 233.374 27.7994 233.107 27.659C232.839 27.5185 232.548 27.4328 232.248 27.4068C231.948 27.3808 231.646 27.415 231.359 27.5075C231.073 27.5999 230.807 27.7488 230.577 27.9456C230.347 28.1424 230.157 28.3833 230.019 28.6545C229.401 29.862 227.018 33.8994 222.249 35.0517C219.365 35.7508 216.336 35.4542 213.724 33.7215C212.559 32.8765 211.454 31.9507 210.415 30.9508L205.666 26.0406Z" fill="#4C51F7"/>
<path d="M164.664 16.4278C164.266 16.2653 163.842 16.175 163.412 16.1609C163.111 16.1571 162.818 16.2556 162.578 16.4405C162.373 16.5885 162.207 16.7848 162.094 17.0124C162.006 17.2073 161.894 17.5081 161.752 17.9191L158.864 26.8666L156.006 18.0504L155.847 17.6267C155.688 17.2726 155.433 16.9715 155.113 16.7583C154.692 16.4601 154.186 16.3112 153.673 16.3346C153.366 16.3313 153.061 16.3949 152.78 16.521C152.541 16.6189 152.323 16.7628 152.137 16.9447C151.979 17.1057 151.839 17.2848 151.72 17.4785C151.636 17.6141 151.563 17.7557 151.499 17.9021L151.432 18.0885L148.574 26.8539L145.686 17.9572C145.566 17.4909 145.367 17.0493 145.098 16.6523C144.969 16.5053 144.809 16.3905 144.63 16.317C144.45 16.2435 144.256 16.2132 144.063 16.2287C143.623 16.2463 143.189 16.3364 142.778 16.4956C141.605 16.9192 141.017 17.4658 141.017 18.1902C141.051 18.6369 141.148 19.0764 141.305 19.4951L146.354 34.217L146.538 34.6407C146.708 34.9639 146.956 35.2379 147.259 35.4372C147.629 35.709 148.076 35.8504 148.532 35.8396C148.844 35.843 149.152 35.7795 149.438 35.6532C149.674 35.5502 149.891 35.4069 150.08 35.2296C150.238 35.0678 150.378 34.8888 150.498 34.6958C150.585 34.5616 150.66 34.4198 150.723 34.2721L150.785 34.073L153.706 25.3372L156.627 34.073L156.786 34.5263C156.963 34.8667 157.219 35.1577 157.533 35.3736C157.924 35.6651 158.4 35.8144 158.885 35.7973C159.36 35.811 159.826 35.6617 160.208 35.3736C160.484 35.187 160.721 34.9465 160.905 34.6661C160.978 34.5206 161.04 34.3689 161.088 34.2128L166.125 19.4315C166.285 19.0122 166.39 18.5736 166.438 18.1267C166.438 17.4192 165.854 16.8557 164.681 16.432L164.664 16.4278Z" fill="#4C51F7"/>
<path d="M173.678 17.3175C173.613 17.1048 173.49 16.9152 173.323 16.771C173.116 16.6239 172.884 16.5162 172.639 16.4533C172.271 16.3562 171.892 16.312 171.512 16.3219C171.06 16.3077 170.609 16.3605 170.172 16.4787C170.024 16.519 169.885 16.5893 169.764 16.6854C169.642 16.7814 169.542 16.9014 169.467 17.0379C169.342 17.2564 169.257 17.4961 169.217 17.7454C169.185 18.0508 169.171 18.3577 169.175 18.6647V34.2552C169.191 34.4635 169.235 34.6687 169.304 34.8653C169.365 35.0798 169.489 35.2705 169.659 35.4118C169.865 35.5594 170.096 35.6685 170.339 35.7338C170.709 35.8285 171.089 35.8727 171.47 35.8651C171.921 35.8783 172.371 35.824 172.805 35.7041C172.955 35.6639 173.094 35.5937 173.216 35.4976C173.338 35.4015 173.439 35.2816 173.515 35.1449C173.634 34.9299 173.719 34.6967 173.765 34.4543C173.795 34.1447 173.808 33.8335 173.803 33.5223V17.9403C173.785 17.7309 173.741 17.5245 173.673 17.326L173.678 17.3175Z" fill="#4C51F7"/>
<path d="M193.536 16.8007C193.698 16.9467 193.817 17.1361 193.878 17.3472L193.89 17.3303C193.959 17.5273 194.002 17.7323 194.02 17.9403V33.5011C194.025 33.8123 194.012 34.1235 193.982 34.4332C193.936 34.6756 193.851 34.9088 193.732 35.1237C193.657 35.2604 193.555 35.3804 193.433 35.4764C193.311 35.5725 193.172 35.6427 193.022 35.683C192.588 35.8029 192.138 35.8571 191.687 35.8439C191.209 35.8702 190.729 35.8158 190.268 35.683C190.009 35.5785 189.782 35.4042 189.613 35.1788C185.68 29.8521 183.091 26.371 181.848 24.7357V33.4842C181.853 33.7953 181.84 34.1066 181.81 34.4162C181.764 34.6586 181.679 34.8918 181.56 35.1068C181.484 35.2435 181.383 35.3634 181.261 35.4595C181.139 35.5556 180.999 35.6258 180.85 35.666C180.414 35.7864 179.963 35.8406 179.511 35.827C179.073 35.84 178.635 35.7857 178.213 35.666C178.067 35.6244 177.93 35.5535 177.811 35.4575C177.692 35.3615 177.593 35.2422 177.52 35.1068C177.393 34.8848 177.308 34.6404 177.27 34.3866C177.239 34.077 177.225 33.7658 177.228 33.4545V18.5928C177.223 18.291 177.241 17.9892 177.283 17.6904C177.33 17.4549 177.414 17.2289 177.533 17.021C177.608 16.8907 177.708 16.7768 177.827 16.6859C177.946 16.595 178.081 16.5289 178.226 16.4914C178.662 16.3695 179.113 16.3152 179.565 16.3305C179.968 16.3185 180.37 16.3671 180.759 16.4745C180.992 16.5375 181.21 16.647 181.401 16.7965C181.571 16.9665 181.729 17.1492 181.873 17.343L182.006 17.504C185.695 22.5991 188.161 25.9629 189.405 27.5954V18.6097C189.398 18.308 189.415 18.0063 189.455 17.7073C189.504 17.4725 189.588 17.2467 189.705 17.038C189.781 16.907 189.881 16.7927 190.001 16.7018C190.121 16.6109 190.257 16.5451 190.402 16.5084C190.836 16.3861 191.287 16.3318 191.737 16.3474C192.113 16.339 192.488 16.3832 192.851 16.4787C193.099 16.5377 193.332 16.6473 193.536 16.8007Z" fill="#4C51F7"/>
<path d="M223.943 28.1843C224.686 28.1843 225.187 28.0614 225.441 27.8157C225.784 27.3388 225.946 26.7519 225.896 26.1635C225.908 25.7624 225.858 25.362 225.746 24.9772C225.71 24.8471 225.649 24.7255 225.567 24.6193C225.484 24.5132 225.382 24.4246 225.266 24.3587C225.082 24.2547 224.881 24.1844 224.673 24.1511C224.425 24.1254 224.176 24.1141 223.926 24.1172H223.839C223.083 24.1172 222.641 24.2019 222.341 24.507C222.04 24.812 221.89 25.3543 221.89 26.138C221.876 26.5341 221.922 26.93 222.028 27.3116C222.063 27.4425 222.123 27.5651 222.206 27.672C222.288 27.779 222.391 27.8681 222.508 27.9343C222.69 28.0404 222.889 28.1135 223.096 28.1504C223.348 28.1767 223.602 28.188 223.855 28.1843H223.943Z" fill="#4C51F7"/>
<path d="M217.108 28.1843C217.867 28.1843 218.368 28.0614 218.61 27.8157L218.577 27.7988C218.92 27.3222 219.081 26.7346 219.027 26.1465C219.04 25.7455 218.99 25.345 218.877 24.9603C218.804 24.697 218.631 24.4734 218.397 24.3375C218.214 24.2367 218.015 24.1666 217.809 24.1299C217.559 24.106 217.309 24.0961 217.058 24.1003H216.974C216.215 24.096 215.714 24.2274 215.472 24.49C215.22 24.7871 215.073 25.1615 215.055 25.5534C214.686 25.5301 214.329 25.4136 214.016 25.2145C213.806 25.1007 213.612 24.9581 213.44 24.7908C213.375 24.711 213.32 24.6227 213.277 24.5281L213.256 24.4434C213.231 24.3941 213.196 24.3503 213.154 24.3147C213.111 24.2791 213.063 24.2523 213.01 24.2358C212.831 24.1606 212.637 24.1273 212.443 24.1384C212.248 24.1283 212.054 24.1646 211.875 24.2443C211.742 24.3163 211.65 24.3756 211.65 24.418C211.645 24.4546 211.645 24.4916 211.65 24.5281C211.65 25.439 212.101 26.2397 212.998 26.9218C213.932 27.6174 215.036 28.0394 216.19 28.1419C216.467 28.1771 216.746 28.1913 217.025 28.1843H217.108Z" fill="#4C51F7"/>
</svg>
